<svg id="Capa_1" data-name="Capa 1" xmlns="http://www.w3.org/2000/svg" viewBox="0 0 500 500"><defs><style>.cls-1{fill:#f09;}</style></defs><path class="cls-1" d="M18.49,107.47c16.6,20.86,38.18,28.15,64.08,23.26,2.86-.54,4.5-.3,6.38,2.21,27.17,36.31,63.82,58.24,107.25,69.11,50.15,12.55,99.23,8.68,146.67-12.19a179.36,179.36,0,0,0,63.62-46.39,54.64,54.64,0,0,0,4.93-6.22c2.78-4.32,6.16-5.08,11.07-5.07,31.18,0,58.46-23,61.08-54.22a10,10,0,0,1,.6-1.71,75.91,75.91,0,0,1,5,21.94c2.95,33.27-9.37,61-31.43,85-21.15,23-47.23,38.78-75.87,50.57-38.74,15.95-79.23,23.25-121,24.21-45.65,1-90-5.47-132.79-21.81a243,243,0,0,1-51.28-26.66c-21.14-14.55-39-32.16-51-55.12A98.65,98.65,0,0,1,14.3,106.3a27,27,0,0,1,.37-3c2.08.82,2.39,2.95,3.72,4.11Z"/><path class="cls-1" d="M226.44,266.48a219.54,219.54,0,0,0-17.51,16.78,165.38,165.38,0,0,0-36.58,65.6c-.9,3.06-2.24,3.64-5.12,3.27-21.18-2.72-42.37-5.39-63.59-7.87-3.3-.38-4.35-1.55-4.16-4.77,2-33.7,14.43-62.65,38-87,5.06-5.23,9.61-2.74,14.15-1.33,20.74,6.44,42,10.13,63.51,12.33C218.84,263.84,222.58,264.18,226.44,266.48Z"/><path class="cls-1" d="M253.51,265.52c7.33-.35,14.66-.65,22-1a328,328,0,0,0,63.61-9.76c3-.75,4.83-.22,6.94,2.13,18.79,20.87,29.4,45.33,32.55,73.12.38,3.33.49,6.7.77,10,.18,2.15-.67,3.08-2.9,3.34q-32.61,3.9-65.19,8c-2.28.28-3.87.28-4.73-2.7-9.16-31.66-26-58.47-51-80.06-.81-.7-1.74-1.25-2.62-1.87Z"/><path class="cls-1" d="M406.84,415.27c-.13,8.37,1.09,7.25-6.26,8.94-18.72,4.29-37.44,8.56-56.11,13-2.91.69-3.79.25-3.84-2.79Q339.87,390.84,310,359c-.53-.56-1.35-1.45-1.2-1.93.44-1.45,2-1,3.09-1.16,16.39-2.06,32.79-4,49.18-6,5.07-.61,10.16-1.11,15.2-1.89a5,5,0,0,1,5.21,2A112.91,112.91,0,0,1,406.84,415.27Z"/><path class="cls-1" d="M72.16,415.69c1.25-23.34,9.59-45.42,25.17-64.78,1.74-2.17,3.71-2.23,6.07-1.94q28.18,3.5,56.38,6.93c2.27.28,4.55.44,6.8.84,1.12.2,2.75-.23,3.24,1s-1,2-1.76,2.88a112.13,112.13,0,0,0-16.94,23.45,110.54,110.54,0,0,0-13,49.82c-.15,5-.2,5-4.87,3.9Q105.65,431.3,78,424.87C71.93,423.46,71.93,423.49,72.16,415.69Z"/><path class="cls-1" d="M138.46,248.65c-3.53,3.75-7.09,7.34-10.44,11.12a124.86,124.86,0,0,0-27.7,53c-.6,2.36-1.23,3.5-3.91,3.16-15.85-2-31.72-3.91-47.58-5.79-3-.36-2.69-2.47-2.59-4.48a133.85,133.85,0,0,1,12.53-50.9,129,129,0,0,1,20-30.12c1.35-1.53,2.49-3,5-1.5a270.07,270.07,0,0,0,53.49,24.67A6.74,6.74,0,0,1,138.46,248.65Z"/><path class="cls-1" d="M18.94,381.44c1-22.45,9.35-44.27,24.42-63.6,1.8-2.31,3.56-3.26,6.75-2.82,15.29,2.12,30.63,3.94,46,5.65,2.84.32,3.17,1.2,2.67,3.79a128.81,128.81,0,0,0-2.51,22,6,6,0,0,1-1.54,4,110.53,110.53,0,0,0-23.19,47.26c-.74,3.37-2,3.85-5.23,3.06-13.81-3.39-27.69-6.49-41.56-9.67C18.67,389.68,18.67,389.71,18.94,381.44Z"/><path class="cls-1" d="M460.06,381.28c.05,7.55.05,7.56-5.8,8.93-14.24,3.33-28.5,6.58-42.72,10-2.5.6-3.54.24-4.12-2.48A110.77,110.77,0,0,0,384.31,350a6.66,6.66,0,0,1-1.81-4.32,123.62,123.62,0,0,0-2.61-22.37c-.54-2.71.31-3.2,2.66-3.47C398.27,318,414,316.1,429.69,314a5,5,0,0,1,5.14,2.17,112.55,112.55,0,0,1,24.43,57C459.67,376.38,459.89,379.6,460.06,381.28Z"/><path class="cls-1" d="M432.8,305.45c.77,2.82-1.12,3.84-5.05,4.25-14.29,1.51-28.55,3.37-42.79,5.32-3.89.53-5.87,0-7-4.43a122.5,122.5,0,0,0-29.58-54.22c-1.81-2-1.4-2.81,1-3.47a279,279,0,0,0,54-20.58c2.58-1.31,3.54-.11,4.79,1.62a128.37,128.37,0,0,1,23.61,61.77C432.18,298.51,432.41,301.33,432.8,305.45Z"/><path class="cls-1" d="M293.4,186.64c-28,17.27-71.58,13-96.27-17.78-26-32.46-22.22-78.42,7.61-105.7,25.48-23.29,64.24-22.63,78.4-13.23-27.5-3-49.76,5.78-66.56,26.58-12,14.85-16.68,32.4-14.33,51.42C207.49,170.42,249.59,199.78,293.4,186.64Z"/><path class="cls-1" d="M251.69,93.85A17.32,17.32,0,0,1,254,95.5c6.64,6.64,13.2,13.35,19.87,20,1.67,1.66,1.89,2.89.09,4.64-6.53,6.37-13,12.77-19.38,19.31-2.21,2.27-3.65,2.12-5.8-.12-6.13-6.39-12.48-12.56-18.75-18.81-1.51-1.5-2.79-2.78-.58-4.93,6.84-6.63,13.51-13.43,20.26-20.14A19.46,19.46,0,0,1,251.69,93.85Z"/></svg>